<?xml version="1.0" encoding="utf-8"?>
<!-- Generator: Adobe Illustrator 24.3.0, SVG Export Plug-In . SVG Version: 6.00 Build 0)  -->
<svg version="1.1" id="Layer_1" xmlns="http://www.w3.org/2000/svg" xmlns:xlink="http://www.w3.org/1999/xlink" x="0px" y="0px"
	 viewBox="0 0 800 800" enable-background="new 0 0 800 800" xml:space="preserve">
<g>
	<path fill="#787EBB" d="M652.782,81.199c2.627-7.577,10.942-11.602,18.504-8.965l0.838,0.289c7.572,2.627,11.593,10.928,8.965,18.5
		L582.84,374.18c-2.627,7.574-10.951,11.593-18.504,8.965l-0.838-0.289c-3.643-1.264-6.584-3.893-8.287-7.404
		c-1.703-3.511-1.944-7.451-0.678-11.094L652.782,81.199z"/>
	<path fill="#83C9EF" d="M124.456,72.525l0.847-0.294c1.544-0.535,3.133-0.801,4.726-0.801c2.172,0,4.344,0.496,6.37,1.48
		c3.51,1.701,6.142,4.644,7.404,8.289l98.25,283.16c1.266,3.643,1.025,7.583-0.678,11.094c-1.703,3.51-4.644,6.14-8.287,7.404
		l-0.842,0.291c-7.599,2.634-15.873-1.395-18.5-8.968l-98.25-283.157C112.868,83.45,116.888,75.15,124.456,72.525z"/>
	<path fill="#BFC6E4" d="M676.892,705.838l-0.096,1.348c0,11.793-9.598,21.391-21.396,21.391H144.595
		c-11.793,0-21.391-9.598-21.391-21.391v-0.678L68.97,335.029c0.328-11.513,9.794-20.776,21.382-20.776h82.857l18.854,54.336
		c-3.866,7.145-5.965,15.188-5.965,23.395c0,27.092,22.042,49.134,49.139,49.134c27.092,0,49.134-22.042,49.134-49.134
		c0-19.142-11.293-36.599-28.46-44.583l-11.501-33.147h307.766l-12.317,35.5c-14.819,8.771-24.228,24.807-24.228,42.231
		c0,27.092,22.042,49.134,49.134,49.134c27.092,0,49.134-22.042,49.134-49.134c0-9.669-2.877-19.016-8.128-26.987l17.607-50.743
		h86.271c11.588,0,21.054,9.264,21.382,20.776L676.892,705.838z"/>
	<g>
		<path fill="#1D1751" d="M709.648,295.602h-79.8l68.863-198.465c5.997-17.289-3.187-36.235-20.481-42.238l-0.838-0.289
			c-17.28-6.001-36.235,3.185-42.231,20.474l-76.515,220.518H237.939L161.423,75.086c-2.896-8.351-8.892-15.083-16.888-18.96
			c-7.996-3.873-16.997-4.405-25.339-1.518l-0.847,0.294c-17.289,6.001-26.473,24.947-20.476,42.236l68.863,198.465H90.352
			c-22.079,0-40.041,17.962-40.041,40.044v0.676l54.247,371.584c0.387,21.751,18.199,39.322,40.037,39.322h510.806
			c21.842,0,39.654-17.571,40.041-39.322l54.152-370.912l0.096-1.348C749.689,313.565,731.727,295.602,709.648,295.602z
			 M652.782,81.199c2.627-7.577,10.942-11.602,18.504-8.965l0.838,0.289c7.572,2.627,11.593,10.928,8.965,18.5L582.84,374.18
			c-2.627,7.574-10.951,11.593-18.504,8.965l-0.838-0.289c-3.643-1.264-6.584-3.893-8.287-7.404
			c-1.703-3.511-1.944-7.451-0.678-11.094L652.782,81.199z M595.248,391.983c0,16.808-13.673,30.484-30.484,30.484
			c-16.811,0-30.484-13.676-30.484-30.484c0-4.278,0.935-8.419,2.602-12.213c3.187,9.358,10.464,17.221,20.506,20.707l0.842,0.291
			c3.588,1.245,7.249,1.835,10.85,1.835c10.097,0,19.703-4.68,25.989-12.58C595.112,390.68,595.248,391.321,595.248,391.983z
			 M124.456,72.525l0.847-0.294c1.544-0.535,3.133-0.801,4.726-0.801c2.172,0,4.344,0.496,6.37,1.48
			c3.51,1.701,6.142,4.644,7.404,8.289l98.25,283.16c1.266,3.643,1.025,7.583-0.678,11.094c-1.703,3.51-4.644,6.14-8.287,7.404
			l-0.842,0.291c-7.599,2.634-15.873-1.395-18.5-8.968l-98.25-283.157C112.868,83.45,116.888,75.15,124.456,72.525z
			 M260.828,375.582c3.085,4.814,4.892,10.46,4.892,16.401c0,16.808-13.673,30.484-30.484,30.484
			c-16.254,0-29.542-12.796-30.405-28.836c6.112,5.696,14.222,8.975,22.674,8.975c3.602,0,7.258-0.59,10.846-1.835l0.847-0.294
			C250.706,396.482,258.59,386.742,260.828,375.582z M676.892,705.838l-0.096,1.348c0,11.793-9.598,21.391-21.396,21.391H144.595
			c-11.793,0-21.391-9.598-21.391-21.391v-0.678L68.97,335.029c0.328-11.513,9.794-20.776,21.382-20.776h82.857l18.854,54.336
			c-3.866,7.145-5.965,15.188-5.965,23.395c0,27.092,22.042,49.134,49.139,49.134c27.092,0,49.134-22.042,49.134-49.134
			c0-19.142-11.293-36.599-28.46-44.583l-11.501-33.147h307.766l-12.317,35.5c-14.819,8.771-24.228,24.807-24.228,42.231
			c0,27.092,22.042,49.134,49.134,49.134c27.092,0,49.134-22.042,49.134-49.134c0-9.669-2.877-19.016-8.128-26.987l17.607-50.743
			h86.271c11.588,0,21.054,9.264,21.382,20.776L676.892,705.838z"/>
	</g>
	<path fill="#1D1751" d="M456.886,546.534c-37.924,0-75.848,0-113.773,0c-12,0-12.021,18.65,0,18.65c37.925,0,75.849,0,113.773,0
		C468.887,565.184,468.906,546.534,456.886,546.534z"/>
</g>
</svg>
